<mxfile host="app.diagrams.net" modified="2024-02-12T02:59:41.296Z" agent="Mozilla/5.0 (X11; Linux x86_64) AppleWebKit/537.36 (KHTML, like Gecko) Chrome/121.0.0.0 Safari/537.36" version="23.1.2" etag="p0G8yTFoXH-CwDSLUVFh" type="github">
  <diagram name="Page-1" id="cmB6gI2j-HZgEZFTg8OP">
    <mxGraphModel>
      <root>
        <mxCell id="0" />
        <mxCell id="1" parent="0" />
      </root>
    </mxGraphModel>
  </diagram>
</mxfile>
